<?xml version="1.0" encoding="utf-8"?>
<!-- Generator: Adobe Illustrator 14.0.0, SVG Export Plug-In  -->
<!DOCTYPE svg PUBLIC "-//W3C//DTD SVG 1.1//EN" "http://www.w3.org/Graphics/SVG/1.1/DTD/svg11.dtd" [
	<!ENTITY ns_flows "http://ns.adobe.com/Flows/1.0/">
]>
<svg version="1.1"
	 xmlns="http://www.w3.org/2000/svg" xmlns:xlink="http://www.w3.org/1999/xlink" xmlns:a="http://ns.adobe.com/AdobeSVGViewerExtensions/3.0/"
	 x="0px" y="0px" width="246px" height="866px" viewBox="-0.532 0 246 866" enable-background="new -0.532 0 246 866"
	 xml:space="preserve">
<defs>
</defs>
<path fill="#FFCF01" d="M115.973,653.748c-30.062,0-54.516,26.542-54.516,59.122c0,49.186,42.633,138.22,44.448,141.767
	c1.93,3.775,5.807,11.363,10.047,11.363c0.006,0,0.013,0,0.021,0c4.229,0,8.104-7.557,10.046-11.314
	c1.817-3.517,44.468-89.373,44.468-139.34C170.486,682.768,146.032,653.748,115.973,653.748z"/>
<circle fill="#07074E" cx="122.521" cy="231.11" r="67.327"/>
<path fill="#626190" d="M93.088,223.731c0-17.694,8.871-33.31,22.401-42.663c-24.469,3.398-43.311,24.392-43.311,49.796
	c0,27.772,22.516,50.288,50.289,50.288c8.31,0,16.142-2.027,23.048-5.597c-0.196,0.002-0.392,0.015-0.589,0.015
	C116.297,275.57,93.088,252.361,93.088,223.731z"/>
<path fill="#C1C0DB" d="M122.468,493.595c47.022,0,88.963,21.737,116.342,55.702c3.969-12.055,6.126-24.933,6.126-38.314
	c0-67.638-54.831-122.468-122.468-122.468S0,443.345,0,510.982c0,13.382,2.157,26.26,6.126,38.314
	C33.505,515.332,75.445,493.595,122.468,493.595z"/>
<path fill="#C1C0DB" d="M178.229,79.955c-22.917-45.557-45.512-72.932-46.462-74.282C129.648,2.663,126.199,0,122.521,0
	c-0.008,0-0.016,0-0.024,0c-3.687,0-7.14,2.685-9.249,5.71C112.297,7.071,89.71,37.199,66.8,83.018
	c-31.054,62.109-46.799,115.02-46.799,159.68c0,45.604,4.515,89.385,13.424,131.466c10.249,48.91,34.681,114.246,34.681,114.246
	c1.335,4.713,2.77,9.396,4.188,13.826c15.681-5.593,32.571-8.641,50.174-8.641c18.159,0,35.556,3.255,51.652,9.19
	c1.076-3.542,2.168-7.285,3.22-11.132c6.289-23.55,17.975-61.876,34.174-117.229c8.977-42.991,13.526-88.636,13.526-134.063
	C225.04,195.691,209.289,141.712,178.229,79.955z M122.468,281.152c-27.773,0-50.289-22.516-50.289-50.288
	c0-27.773,22.516-50.289,50.289-50.289s50.289,22.516,50.289,50.289C172.757,258.637,150.241,281.152,122.468,281.152z"/>
<path fill="#07074E" d="M72.294,502.235c-1.419-4.43-2.854-9.113-4.188-13.826c0,0-12.805-34.246-23.764-71.711
	c-2.666,2.211-5.247,4.521-7.715,6.946l35.094,78.803c0.257-0.094,0.518-0.18,0.774-0.271
	C72.429,502.197,72.361,502.212,72.294,502.235z"/>
<path fill="#626190" d="M208.439,423.773c-2.885-2.844-5.922-5.531-9.076-8.08c-9.981,33.754-17.438,58.789-22.023,75.96
	c-1.052,3.847-2.144,7.59-3.22,11.132c-0.24-0.089-0.438-0.158-0.602-0.213c0.624,0.227,1.249,0.451,1.868,0.686L208.439,423.773z"
	/>
</svg>
